HIERARCHY
ROOT hip
{
  OFFSET 0 0 0
  CHANNELS 6 Xposition Yposition Zposition Zrotation Yrotation Xrotation
  JOINT abdomen
  {
    OFFSET 0 20.6881 -0.73152
    CHANNELS 3 Zrotation Xrotation Yrotation
    JOINT chest
    {
      OFFSET 0 11.7043 -0.48768
      CHANNELS 3 Zrotation Xrotation Yrotation
      JOINT neck
      {
        OFFSET 0 22.1894 -2.19456
        CHANNELS 3 Zrotation Xrotation Yrotation
        JOINT head
        {
          OFFSET -0.24384 7.07133 1.2192
          CHANNELS 3 Zrotation Xrotation Yrotation
          JOINT leftEye
          {
            OFFSET 4.14528 8.04674 8.04672
            CHANNELS 3 Zrotation Xrotation Yrotation
            End Site
            {
              OFFSET 1 0 0
            }
          }
          JOINT rightEye
          {
            OFFSET -3.6576 8.04674 8.04672
            CHANNELS 3 Zrotation Xrotation Yrotation
            End Site
            {
              OFFSET 1 0 0
            }
          }
        }
      }
      JOINT rCollar
      {
        OFFSET -2.68224 19.2634 -4.8768
        CHANNELS 3 Zrotation Xrotation Yrotation
        JOINT rShldr
        {
          OFFSET -8.77824 -1.95073 1.46304
          CHANNELS 3 Zrotation Xrotation Yrotation
          JOINT rForeArm
          {
            OFFSET -28.1742 -1.7115 0.48768
            CHANNELS 3 Zrotation Xrotation Yrotation
            JOINT rHand
            {
              OFFSET -22.5879 0.773209 7.07136
              CHANNELS 3 Zrotation Xrotation Yrotation
              JOINT rThumb1
              {
                OFFSET -1.2192 -0.487915 3.41376
                CHANNELS 3 Zrotation Xrotation Yrotation
                JOINT rThumb2
                {
                  OFFSET -3.37035 -0.52449 3.41376
                  CHANNELS 3 Zrotation Xrotation Yrotation
                  End Site
                  {
                    OFFSET -1.78271 -1.18214 1.43049
                  }
                }
              }
              JOINT rIndex1
              {
                OFFSET -7.75947 0.938293 5.60832
                CHANNELS 3 Zrotation Xrotation Yrotation
                JOINT rIndex2
                {
                  OFFSET -2.54057 -0.884171 1.56538
                  CHANNELS 3 Zrotation Xrotation Yrotation
                  End Site
                  {
                    OFFSET -1.62519 -0.234802 1.16502
                  }
                }
              }
              JOINT rMid1
              {
                OFFSET -8.24714 1.18213 3.41376
                CHANNELS 3 Zrotation Xrotation Yrotation
                JOINT rMid2
                {
                  OFFSET -3.10165 -0.590103 1.0647
                  CHANNELS 3 Zrotation Xrotation Yrotation
                  End Site
                  {
                    OFFSET -2.48547 -0.328903 0.83742
                  }
                }
              }
              JOINT rRing1
              {
                OFFSET -8.82822 0.546677 1.51678
                CHANNELS 3 Zrotation Xrotation Yrotation
                JOINT rRing2
                {
                  OFFSET -2.60934 -0.819778 -0.0198488
                  CHANNELS 3 Zrotation Xrotation Yrotation
                  End Site
                  {
                    OFFSET -2.33842 -0.294052 0.168128
                  }
                }
              }
              JOINT rPinky1
              {
                OFFSET -8.27202 -0.0477905 -0.4584
                CHANNELS 3 Zrotation Xrotation Yrotation
                JOINT rPinky2
                {
                  OFFSET -1.82734 -0.647385 -0.700984
                  CHANNELS 3 Zrotation Xrotation Yrotation
                  End Site
                  {
                    OFFSET -1.69225 -0.51767 -0.607171
                  }
                }
              }
            }
          }
        }
      }
      JOINT lCollar
      {
        OFFSET 2.68224 19.2634 -4.8768
        CHANNELS 3 Zrotation Xrotation Yrotation
        JOINT lShldr
        {
          OFFSET 8.77824 -1.95073 1.46304
          CHANNELS 3 Zrotation Xrotation Yrotation
          JOINT lForeArm
          {
            OFFSET 28.1742 -1.7115 0.48768
            CHANNELS 3 Zrotation Xrotation Yrotation
            JOINT lHand
            {
              OFFSET 22.5879 0.773209 7.07136
              CHANNELS 3 Zrotation Xrotation Yrotation
              JOINT lThumb1
              {
                OFFSET 1.2192 -0.487915 3.41376
                CHANNELS 3 Zrotation Xrotation Yrotation
                JOINT lThumb2
                {
                  OFFSET 3.37035 -0.52449 3.41376
                  CHANNELS 3 Zrotation Xrotation Yrotation
                  End Site
                  {
                    OFFSET 1.78271 -1.18214 1.43049
                  }
                }
              }
              JOINT lIndex1
              {
                OFFSET 7.75947 0.938293 5.60832
                CHANNELS 3 Zrotation Xrotation Yrotation
                JOINT lIndex2
                {
                  OFFSET 2.54057 -0.884171 1.56538
                  CHANNELS 3 Zrotation Xrotation Yrotation
                  End Site
                  {
                    OFFSET 1.62519 -0.234802 1.16502
                  }
                }
              }
              JOINT lMid1
              {
                OFFSET 8.24714 1.18213 3.41376
                CHANNELS 3 Zrotation Xrotation Yrotation
                JOINT lMid2
                {
                  OFFSET 3.10165 -0.590103 1.0647
                  CHANNELS 3 Zrotation Xrotation Yrotation
                  End Site
                  {
                    OFFSET 2.48547 -0.328903 0.83742
                  }
                }
              }
              JOINT lRing1
              {
                OFFSET 8.82822 0.546677 1.51678
                CHANNELS 3 Zrotation Xrotation Yrotation
                JOINT lRing2
                {
                  OFFSET 2.60934 -0.819778 -0.0198488
                  CHANNELS 3 Zrotation Xrotation Yrotation
                  End Site
                  {
                    OFFSET 2.33842 -0.294052 0.168128
                  }
                }
              }
              JOINT lPinky1
              {
                OFFSET 8.27202 -0.0477905 -0.4584
                CHANNELS 3 Zrotation Xrotation Yrotation
                JOINT lPinky2
                {
                  OFFSET 1.82734 -0.647385 -0.700984
                  CHANNELS 3 Zrotation Xrotation Yrotation
                  End Site
                  {
                    OFFSET 1.69225 -0.51767 -0.607171
                  }
                }
              }
            }
          }
        }
      }
    }
  }
  JOINT rButtock
  {
    OFFSET -8.77824 4.35084 1.2192
    CHANNELS 3 Zrotation Xrotation Yrotation
    JOINT rThigh
    {
      OFFSET 0 -1.70687 -2.19456
      CHANNELS 3 Zrotation Xrotation Yrotation
      JOINT rShin
      {
        OFFSET 0 -36.8199 0.73152
        CHANNELS 3 Zrotation Xrotation Yrotation
        JOINT rFoot
        {
          OFFSET 0.73152 -45.1104 -5.12064
          CHANNELS 3 Zrotation Xrotation Yrotation
          End Site
          {
            OFFSET -1.1221 -3.69964 12.103
          }
        }
      }
    }
  }
  JOINT lButtock
  {
    OFFSET 8.77824 4.35084 1.2192
    CHANNELS 3 Zrotation Xrotation Yrotation
    JOINT lThigh
    {
      OFFSET 0 -1.70687 -2.19456
      CHANNELS 3 Zrotation Xrotation Yrotation
      JOINT lShin
      {
        OFFSET 0 -36.8199 0.73152
        CHANNELS 3 Zrotation Xrotation Yrotation
        JOINT lFoot
        {
          OFFSET -0.73152 -45.1104 -5.12064
          CHANNELS 3 Zrotation Xrotation Yrotation
          End Site
          {
            OFFSET 1.1221 -3.69964 12.103
          }
        }
      }
    }
  }
}
MOTION
Frames:	8
Frame Time:	0.03333
4.1157 48.6456 0.7756 -177.840991 -61.382739 -174.571913 -3.304576 11.534474 -163.893389 -3.282386 9.143059 153.299101 4.633124 24.734945 68.130215 -31.873701 -9.285481 -125.522813 -0.001716 0.0 -0.00017 0.003871 -0.0 -0.000424 0.162883 -0.990114 -0.218074 -131.137991 15.617294 169.732309 81.580051 -44.032111 -115.724977 -135.236821 62.320045 111.446515 -78.030199 38.689643 42.412926 7.148072 -17.374598 22.917556 -151.352906 -17.157992 121.134267 -14.901798 38.943477 5.201411 -82.840489 61.111435 74.532282 -161.047883 1.268203 142.430129 0.002357 0.063633 0.020915 10.30913 0.186647 -0.044332 -156.380133 53.733982 -150.119836 -42.900339 -48.9332 -42.751223 151.981157 14.727825 -157.382091 56.30572 1.865032 4.235683 -174.192892 -40.28566 78.762103 11.631034 27.977395 -1.43656 173.976711 -11.643318 -89.881188 -42.401016 -68.304837 -32.872388 1.162251 1.860608 -0.670055 113.597594 38.249659 -88.816872 171.8044 -40.92207 -145.170721 170.375899 -25.720818 -143.92475 -0.005057 1.771165 -0.557924 140.507923 60.463153 -154.518509 1.204871 -3.047371 1.115647 128.706891 -29.141274 127.108279 -179.99823 75.74852 -0.001826 152.566786 -2.753104 -2.018287 -105.598933 63.222906 10.403979 39.913157 -23.002055 113.063508 179.981934 75.749764 0.015941 -137.904258 4.519282 -0.0 157.505291 77.967317 123.935505 34.465933 -21.261271 92.89714
4.2431 48.1955 0.8073 -177.899604 -60.515862 -174.352627 -4.096424 16.206431 -0.0 6.53263 -12.627557 -9.262606 2.554817 22.527 51.378886 -25.400142 -18.260219 -109.941606 -0.000565 0.0 -0.001102 0.005033 -0.0 -0.001399 -33.838348 -85.665664 -55.255777 -141.375064 -40.067095 -149.305831 -166.455237 -13.118634 -61.199921 -4.560244 -2.244872 -2.164884 173.307434 -23.519059 87.871036 -63.801804 4.152216 12.851706 -127.854119 18.703728 107.507223 -15.761804 34.652448 4.16831 -125.643297 49.839534 115.273658 -85.801301 63.973048 77.832566 -0.021855 -1.725452 -0.540528 -140.237672 60.45564 154.532564 -152.199419 37.32927 -147.585306 1.986353 0.363346 -1.768446 146.666306 31.659314 -151.372211 66.25082 28.410192 -15.66357 8.334151 17.662881 138.632309 -167.582806 -30.5939 -141.397794 2.813692 2.754217 -0.499057 114.780515 -4.345078 -103.827328 90.225161 41.07183 -75.796722 -4.646395 2.419397 4.86668 170.28275 -36.723284 -145.338936 5.196459 21.239351 -4.784561 73.626432 72.971101 -91.554679 -5.689644 15.92233 2.47479 0.292947 -0.753094 0.267641 159.0161 54.015484 150.019816 0.006346 -0.000236 0.003173 -71.684081 -61.358317 -69.916218 -102.107193 62.881876 24.498291 178.717288 -43.375592 -90.961923 0.000375 0.000656 -0.000187 72.334632 -43.276205 -37.35965 -104.251624 -10.154033 -0.328586 40.647364 -26.199027 103.468919
4.3953 47.7857 0.7803 -177.675838 -59.887426 -174.491104 -3.833413 16.335945 0.926224 6.232531 -12.830803 -9.972512 -8.662361 20.742293 -9.110873 16.655045 -26.562697 -40.031569 -0.004118 -0.0 0.000236 0.001981 -0.0 -0.004648 -44.041072 64.186546 46.71129 -113.502351 36.850959 121.806927 -163.669526 43.294466 -71.76532 -5.066382 0.811336 -1.895881 -173.771238 -11.439732 89.891219 -91.097116 11.81449 34.790202 -77.668265 43.030298 64.538026 -176.545112 -29.298555 112.467178 -10.976698 25.789629 7.640662 80.590424 -77.977286 52.032217 0.000838 -0.060782 -0.019555 -156.566938 -30.817865 175.465193 -112.780969 -40.02478 -110.812146 -125.975728 -29.938798 -124.662929 155.80883 -5.555398 -162.266997 -134.823644 5.382518 159.188518 -169.82433 -17.543938 -29.729687 -177.392796 -2.674799 -144.200116 176.598699 -14.212981 -89.690979 -172.920237 -23.436476 -99.796722 46.208796 39.653195 -36.317744 -179.70679 -33.382708 -109.166525 152.124975 16.402241 -138.011115 -86.526706 -77.985089 -57.717359 0.000527 0.063841 -0.019199 156.581592 -32.214226 -175.635065 -6.322233 19.118557 -5.656172 147.274913 10.260721 143.283184 179.998017 75.750156 0.001357 154.138919 -5.779156 -78.264801 -91.216245 -4.763858 104.012959 85.040764 -25.189321 13.285685 -0.00287 3.9e-05 -0.004305 73.149404 -42.688315 -19.230095 -109.616058 18.749615 -154.927255 176.994845 28.118541 83.270491
4.5229 47.368900000000004 0.7656999999999999 -177.153024 -59.508653 -174.880962 -2.796021 16.432512 -13.905742 8.553391 -11.036609 4.92156 4.001959 37.137209 143.826473 -29.388892 36.697407 171.331335 -7.7e-05 -0.0 0.001076 -7.7e-05 -0.0 0.001076 -44.04103 64.186738 46.710833 59.710155 -41.216177 52.806244 -13.968897 -49.446168 106.004744 -3.545598 -2.599038 -1.902681 -171.652433 -9.336557 89.950472 -71.629726 2.509297 21.811576 -50.386887 40.826425 40.024345 -173.278066 -24.238051 111.555189 -158.522061 -0.192215 142.144785 3.108869 0.39602 0.413795 -73.164493 -72.142056 -90.198317 14.726065 0.47661 -4.532685 -146.20928 15.405077 -142.731146 -171.845799 70.998127 -142.75845 -0.118157 -0.714021 0.158126 -56.246863 30.726231 -35.069372 1.599824 5.651145 -110.744185 6.766888 14.324544 0.421191 177.567981 -15.149668 -89.59008 135.954351 13.28686 -69.318697 152.811872 -19.873094 -121.573438 -169.310364 -56.79351 -106.488218 39.288623 53.366028 -32.87827 -92.015106 -78.468522 -62.844269 0.005226 3.47376 -1.092355 154.60159 11.960103 -170.229323 153.760868 43.512522 148.655159 -43.924946 79.679344 8.31017 0.0 0.000737 -0.000391 -79.267597 -62.747322 99.564398 122.012638 -70.313289 48.193172 -31.038032 7.96397 -90.937893 0.006407 -0.001915 0.003203 72.449501 -43.052329 66.248135 146.824561 65.524044 -14.379962 1.346786 72.171135 -125.737748
4.6244 46.9776 0.7322000000000001 -176.823735 -59.371419 -175.113942 -0.662072 14.079397 -93.763574 10.15463 4.227114 83.012869 7.187855 30.588734 100.960434 -37.840455 11.847402 -152.214776 0.002233 0.0 0.00032 0.002233 0.0 0.00032 0.482185 -3.000844 -0.653356 41.242637 3.379624 8.696812 177.17283 30.315074 28.538838 178.949384 -3.916445 143.599143 114.538724 -50.245226 55.721556 -157.279491 -88.491669 169.573534 -90.226124 41.072095 75.79633 3.533807 4.26998 -4.548813 -166.120163 -24.039486 145.078073 -155.937222 15.507571 139.531232 -0.001598 -0.060835 -0.019151 11.422109 -44.454829 -5.501549 -124.853509 -29.039451 -122.622002 -147.348166 13.456277 -142.447855 59.835369 -86.720938 81.636079 104.03227 -17.720561 128.629528 23.287448 67.617245 119.209077 -168.768914 -28.07008 -141.919746 -71.831063 -48.264147 -25.791344 142.3403 5.872376 -111.216088 83.732223 42.330217 -69.99019 -9.315399 -5.530944 5.399818 0.206366 0.596276 -0.114985 -3.096637 0.408026 -0.02731 145.121315 0.309895 179.226131 148.091912 -43.198753 170.549165 17.348921 -30.441244 16.588823 4.741185 -17.964927 7.089595 0.000457 0.000683 -0.000588 -75.89003 -62.390502 -77.442729 -116.381381 60.292457 -19.317741 -121.064665 45.618416 -135.75501 -0.044198 -0.001656 -0.033148 75.038346 -44.594607 180.0 113.566174 -23.757855 148.046661 139.957618 -21.908455 -175.386047
4.7327 46.604299999999995 0.6982999999999999 -176.677497 -59.371298 -175.226074 -2.482602 11.976423 -168.198465 -3.737475 9.161734 158.087168 0.54125 39.339336 166.53549 -16.742204 45.479576 146.628015 -0.002501 0.0 -0.001548 0.002797 0.0 0.003738 -155.460407 -3.22776 161.777558 -149.852591 79.914669 128.497263 148.340377 -0.375187 6.388897 -162.805316 42.020984 135.357715 -10.204213 9.661764 2.405244 17.616708 -20.245235 -5.262611 -0.328585 0.52974 0.185473 -79.557948 48.079382 62.049724 -6.648103 17.108677 4.325149 -2.078794 14.751288 2.657455 0.004452 1.77157 0.555295 -156.625286 -25.087592 174.787903 -156.381695 53.734585 -150.116844 -24.594348 -39.172777 -25.193579 153.049462 10.023199 -158.66754 -122.029751 59.213625 170.499426 79.855654 80.4785 166.763994 5.378143 9.370374 0.831327 171.705946 -9.388487 -89.948806 71.634071 2.533908 -21.796106 148.886203 -12.609841 -120.244599 62.46148 57.286132 -45.898752 8.417448 20.880075 -5.646518 -168.080083 -64.101322 -133.203708 145.119292 0.309422 179.22711 54.935468 87.579643 -68.12679 26.563292 -38.861588 25.604734 158.236027 52.587832 149.441924 -179.994571 75.749869 -0.005601 152.742843 -9.183425 -180.0 134.052159 -76.661311 40.523708 178.314556 -45.080929 93.430134 -179.876448 75.74927 -0.095227 -134.25574 0.056978 -90.022605 -106.729693 4.550213 1.52844 -176.888884 19.444943 -100.502469
4.8277 46.2264 0.656 -176.95131 -59.385705 -174.935236 -0.719263 14.115237 -96.372246 9.95944 4.729953 85.170522 7.348046 29.994316 97.208016 -37.701637 9.28805 -149.577963 0.000388 0.0 0.003343 0.000388 0.0 0.003343 -14.147886 43.061655 15.996228 -147.702641 -11.605996 144.04965 73.106723 -81.299262 -85.229483 179.08869 -2.621584 143.648582 -169.145582 -6.826546 89.915729 -39.719483 -22.249729 7.501707 45.282422 -63.865476 4.306806 -160.809025 -21.918505 113.867552 -0.056809 0.167973 0.032538 -162.991612 -3.908247 143.261 0.004586 0.605778 0.189976 -148.272664 -76.779268 -171.093001 -16.662485 -29.659313 -15.919533 -10.096271 -26.792071 -12.040325 84.732178 68.223053 -87.874745 82.041642 16.739379 -64.159595 119.142554 19.395179 65.068374 -21.875806 -53.842237 -10.521012 168.111028 -5.789227 -89.869325 -111.397292 -61.096171 -81.278159 152.462193 -19.226222 -121.475547 156.890993 -6.770839 -119.301735 -0.54074 -1.590072 0.294178 129.277203 52.117028 -118.504114 0.000389 0.063736 -0.020746 156.369414 -20.597844 -174.270332 -12.632367 42.934104 -10.532344 148.505908 12.950181 143.671245 0.000711 -0.00062 -0.000915 -81.456426 -63.630635 -171.928655 -102.526084 -27.88195 -2.733962 34.235841 -7.243124 103.655739 0.005047 0.000248 0.003785 76.684408 -42.564878 0.0 -113.880142 35.130017 -160.319929 -89.440933 66.534503 -23.941041
4.9098999999999995 45.8545 0.5775 -177.158325 -59.428791 -174.729297 -2.771847 16.764217 -14.232824 8.716447 -11.2174 4.546307 -8.001835 39.658655 -148.988875 18.696593 46.150819 89.367389 -0.001119 0.0 -0.001454 -0.001119 0.0 -0.001454 4.238635 -44.742762 -8.648383 177.72273 77.024279 -138.183973 44.543857 -0.941077 158.729833 -115.208014 69.287166 93.110059 11.508763 -11.487283 -0.623405 -8.989194 7.790641 0.208573 -152.103596 -18.556181 121.369828 -152.281185 3.005237 118.1737 7.903639 -24.80769 -3.013283 2.862057 0.830417 0.104469 -0.014393 -1.323122 -0.416081 -155.320976 -1.335828 172.010157 44.735199 86.377979 -5.369249 14.820428 43.008577 7.212962 -1.698504 -70.103211 16.503749 -58.958229 -2.685708 34.454889 -95.401504 86.75284 -18.484947 10.646762 22.337167 -0.527888 1.19366 1.174206 -0.195834 -7.651268 -10.029327 5.21205 0.689319 1.107764 -0.394735 161.544134 -13.541986 -110.107133 167.298353 -27.767631 -145.259547 34.843566 54.914776 -29.452757 145.118421 0.1852 179.187148 150.17743 78.826835 -164.608062 -9.968277 32.461571 -8.62572 23.403186 -40.007813 23.610176 -0.000443 0.000682 -0.000443 -83.599463 -61.241083 0.0 106.212145 32.896378 148.134858 -146.204142 47.775313 -114.952705 179.997813 75.74896 0.001799 -136.354645 -1.018669 90.228933 103.972326 -6.566738 -134.543087 27.770665 -11.648711 56.835456
